<svg xmlns="http://www.w3.org/2000/svg" viewBox="0 0 850 350" font-family="'Segoe UI', system-ui, sans-serif">
  <defs>
    <marker id="p1" markerWidth="10" markerHeight="7" refX="10" refY="3.5" orient="auto"><polygon points="0 0,10 3.5,0 7" fill="#64748b"/></marker>
    <marker id="p2" markerWidth="10" markerHeight="7" refX="10" refY="3.5" orient="auto"><polygon points="0 0,10 3.5,0 7" fill="#ef4444"/></marker>
    <marker id="p3" markerWidth="10" markerHeight="7" refX="10" refY="3.5" orient="auto"><polygon points="0 0,10 3.5,0 7" fill="#22c55e"/></marker>
  </defs>
  <rect width="850" height="350" rx="12" fill="#0f172a"/>
  <text x="425" y="35" text-anchor="middle" fill="#f1f5f9" font-size="17" font-weight="700">Exception Pickle Round-Trip (pydantic-ai #4504)</text>

  <!-- BROKEN -->
  <text x="30" y="70" fill="#ef4444" font-size="13" font-weight="600">BROKEN: custom attributes lost after pickle</text>
  <rect x="30" y="85" width="200" height="55" rx="8" fill="#1e293b" stroke="#475569" stroke-width="1.5"/>
  <text x="130" y="106" text-anchor="middle" fill="#f8fafc" font-size="12" font-weight="600">ModelHTTPError</text>
  <text x="130" y="125" text-anchor="middle" fill="#94a3b8" font-size="10">status_code=429, model_name=...</text>

  <rect x="280" y="85" width="130" height="55" rx="8" fill="#1e293b" stroke="#f59e0b" stroke-width="1.5"/>
  <text x="345" y="106" text-anchor="middle" fill="#fbbf24" font-size="12" font-weight="600">pickle.dumps</text>
  <text x="345" y="125" text-anchor="middle" fill="#94a3b8" font-size="10">serialize</text>

  <rect x="460" y="85" width="130" height="55" rx="8" fill="#1e293b" stroke="#f59e0b" stroke-width="1.5"/>
  <text x="525" y="106" text-anchor="middle" fill="#fbbf24" font-size="12" font-weight="600">pickle.loads</text>
  <text x="525" y="125" text-anchor="middle" fill="#94a3b8" font-size="10">deserialize</text>

  <rect x="640" y="85" width="180" height="55" rx="8" fill="#451a1a" stroke="#ef4444" stroke-width="2"/>
  <text x="730" y="106" text-anchor="middle" fill="#fca5a5" font-size="12" font-weight="600">ModelHTTPError</text>
  <text x="730" y="125" text-anchor="middle" fill="#fca5a5" font-size="10">status_code=None ✗ LOST</text>

  <line x1="230" y1="112" x2="275" y2="112" stroke="#64748b" stroke-width="1.5" marker-end="url(#p1)"/>
  <line x1="410" y1="112" x2="455" y2="112" stroke="#64748b" stroke-width="1.5" marker-end="url(#p1)"/>
  <line x1="590" y1="112" x2="635" y2="112" stroke="#ef4444" stroke-width="2" marker-end="url(#p2)"/>

  <!-- FIXED -->
  <text x="30" y="190" fill="#22c55e" font-size="13" font-weight="600">FIXED: __reduce__ preserves all custom attributes</text>
  <rect x="30" y="205" width="200" height="55" rx="8" fill="#1e293b" stroke="#475569" stroke-width="1.5"/>
  <text x="130" y="226" text-anchor="middle" fill="#f8fafc" font-size="12" font-weight="600">ModelHTTPError</text>
  <text x="130" y="245" text-anchor="middle" fill="#94a3b8" font-size="10">status_code=429, model_name=...</text>

  <rect x="280" y="205" width="130" height="55" rx="8" fill="#14532d" stroke="#22c55e" stroke-width="2"/>
  <text x="345" y="226" text-anchor="middle" fill="#86efac" font-size="12" font-weight="700">__reduce__</text>
  <text x="345" y="245" text-anchor="middle" fill="#86efac" font-size="10">(cls, (429, name, body))</text>

  <rect x="460" y="205" width="130" height="55" rx="8" fill="#1e293b" stroke="#475569" stroke-width="1.5"/>
  <text x="525" y="226" text-anchor="middle" fill="#f8fafc" font-size="12" font-weight="600">pickle round-trip</text>
  <text x="525" y="245" text-anchor="middle" fill="#94a3b8" font-size="10">dumps → loads</text>

  <rect x="640" y="205" width="180" height="55" rx="8" fill="#14532d" stroke="#22c55e" stroke-width="1.5"/>
  <text x="730" y="226" text-anchor="middle" fill="#86efac" font-size="12" font-weight="600">ModelHTTPError</text>
  <text x="730" y="245" text-anchor="middle" fill="#86efac" font-size="10">status_code=429 ✓ PRESERVED</text>

  <line x1="230" y1="232" x2="275" y2="232" stroke="#22c55e" stroke-width="1.5" marker-end="url(#p3)"/>
  <line x1="410" y1="232" x2="455" y2="232" stroke="#22c55e" stroke-width="1.5" marker-end="url(#p3)"/>
  <line x1="590" y1="232" x2="635" y2="232" stroke="#22c55e" stroke-width="1.5" marker-end="url(#p3)"/>

  <!-- Exception classes list -->
  <rect x="30" y="285" width="790" height="50" rx="8" fill="#1e293b" stroke="#475569" stroke-width="1"/>
  <text x="425" y="306" text-anchor="middle" fill="#f8fafc" font-size="12" font-weight="600">5 exception classes fixed: CallDeferred · ApprovalRequired · UnexpectedModelBehavior · ModelAPIError · ModelHTTPError</text>
  <text x="425" y="325" text-anchor="middle" fill="#94a3b8" font-size="11">16 parameterized tests covering all variants · enables Celery / Ray / multiprocessing error propagation</text>
</svg>